<svg width="112" height="42" viewBox="0 0 112 42" fill="none" xmlns="http://www.w3.org/2000/svg">
<g clip-path="url(#clip0_1_267)">
<path d="M55.2174 30.8074H58.6471L59.921 27.0837H66.6825L67.9564 30.8074H71.4841L65.4086 13.2668H61.2929L55.2174 30.8074ZM60.803 24.242L63.2528 16.8925L65.7026 24.242H60.803Z" fill="#232E35"/>
<path d="M73.0519 30.8072H76.0896V12.9727H73.0519V30.8072Z" fill="#232E35"/>
<path d="M85.1049 31.1011C86.3788 31.1011 87.5547 30.8071 88.5346 30.2192C89.5145 29.6312 90.2005 28.8473 90.5925 27.9653L88.1427 26.7894C87.8487 27.2794 87.4567 27.6714 86.9667 27.9653C86.4768 28.2593 85.8888 28.4553 85.2029 28.4553C84.321 28.4553 83.537 28.1613 82.8511 27.5734C82.1651 26.9854 81.8712 26.2995 81.7732 25.3196H90.9844C91.0824 25.1236 91.0824 24.9276 91.0824 24.7316C91.0824 24.5356 91.0824 24.2416 91.0824 24.0457C91.0824 22.8698 90.8864 21.8898 90.3965 20.9099C89.9065 19.93 89.2206 19.244 88.2406 18.6561C87.3587 18.0681 86.1828 17.7742 84.8109 17.7742C83.635 17.7742 82.5571 18.0681 81.5772 18.6561C80.5973 19.244 79.8133 20.028 79.3234 21.0079C78.7354 21.9878 78.5394 23.1637 78.5394 24.4376C78.5394 25.7115 78.8334 26.7894 79.3234 27.8673C79.9113 28.8473 80.5973 29.7292 81.6752 30.3171C82.6551 30.8071 83.733 31.1011 85.1049 31.1011ZM84.8109 20.224C85.5949 20.224 86.2808 20.5179 86.8688 21.0079C87.4567 21.4979 87.7507 22.0858 87.7507 22.8698H81.7732C81.9692 21.9878 82.2631 21.3999 82.8511 20.9099C83.439 20.5179 84.125 20.224 84.8109 20.224Z" fill="#232E35"/>
<path d="M92.0624 30.8072H95.6881L98.3339 26.7895L100.98 30.8072H104.605L100.196 24.3397L104.703 17.9702H101.078L98.4319 21.9879L95.6881 17.9702H92.0624L96.57 24.3397L92.0624 30.8072Z" fill="#232E35"/>
<path d="M107.741 30.8073H110.877V27.4756H107.741V30.8073Z" fill="#232E35"/>
<path d="M19.6463 1.40967C8.86713 1.40967 0.0478516 10.229 0.0478516 21.0081C0.0478516 31.7872 8.86713 40.6065 19.6463 40.6065C30.4254 40.6065 39.2447 31.7872 39.2447 21.0081C39.2447 10.229 30.4254 1.40967 19.6463 1.40967ZM11.6109 28.3575C9.45509 28.3575 7.69123 26.5936 7.69123 24.4378C7.69123 22.282 9.45509 20.5181 11.6109 20.5181C13.7667 20.5181 15.5306 22.282 15.5306 24.4378C15.5306 26.5936 13.7667 28.3575 11.6109 28.3575ZM27.9756 27.2796C26.2117 28.3575 23.8599 27.6715 22.782 25.9077L17.2944 16.4024C16.2165 14.6386 16.9025 12.2868 18.6663 11.2089C20.4302 10.131 22.782 10.8169 23.8599 12.5808L29.3475 22.086C30.4254 23.9478 29.7394 26.2996 27.9756 27.2796Z" fill="#232E35"/>
</g>
<defs>
<clipPath id="clip0_1_267">
<rect width="111.711" height="40.1767" fill="white" transform="translate(0.0478516 0.919678)"/>
</clipPath>
</defs>
</svg>
