<svg width="20" height="20" viewBox="0 0 20 20" fill="none" xmlns="http://www.w3.org/2000/svg">
<path d="M12.7993 4.8389C13.5216 4.97984 14.2387 5.29841 14.7591 5.81882C15.2795 6.33923 15.5981 7.05631 15.739 7.77866M13.2892 1.40918C14.79 1.5759 16.1405 2.30196 17.2089 3.36902C18.2773 4.43609 19.0001 5.78814 19.1687 7.2887M19.1682 14.6152V17.2706C19.1723 18.2856 18.2596 19.1333 17.2348 19.0408C8.38968 19.0477 1.53024 12.1246 1.53717 3.33882C1.44487 2.31947 2.28829 1.41022 3.30204 1.40927H5.96267C6.39307 1.40504 6.81033 1.55715 7.13667 1.83725C8.06448 2.63358 8.66125 5.33648 8.43164 6.41097C8.25237 7.24986 7.40673 7.83676 6.8318 8.41055C8.09432 10.6265 9.93271 12.4613 12.153 13.7213C12.728 13.1475 13.316 12.3035 14.1566 12.1246C15.2349 11.8951 17.9552 12.4927 18.7483 13.427C19.0296 13.7583 19.179 14.1812 19.1682 14.6152Z" stroke="#7E74F1" stroke-width="1.46988" stroke-linecap="round" stroke-linejoin="round"/>
</svg>
